<?xml version="1.0" encoding="utf-8"?>
<!-- Generator: Adobe Illustrator 17.1.0, SVG Export Plug-In . SVG Version: 6.00 Build 0)  -->
<!DOCTYPE svg PUBLIC "-//W3C//DTD SVG 1.1//EN" "http://www.w3.org/Graphics/SVG/1.1/DTD/svg11.dtd">
<svg version="1.1" id="Layer_1" xmlns="http://www.w3.org/2000/svg" xmlns:xlink="http://www.w3.org/1999/xlink" x="0px" y="0px"
	 viewBox="0 0 75 75" enable-background="new 0 0 75 75" xml:space="preserve">
<g>
	<path fill="#CECECE" d="M32.8,35.8c0,0,5.6-0.4,5.6-7c0-6.5-4.6-9.7-10.4-9.7H17.4h-0.3H9v36.6h8.1h0.3H28c0,0,11.6,0.4,11.6-10.8
		C39.7,44.8,40.2,35.8,32.8,35.8z M17.4,25.6h9.3H28c0,0,2.6,0,2.6,3.8c0,3.8-1.5,4.4-3.2,4.4h-10L17.4,25.6L17.4,25.6z M27.5,49.1
		c-0.3,0-0.5,0-0.7,0h-9.4v-9.8H28c0,0,3.9-0.1,3.9,5C31.9,48.7,29,49.1,27.5,49.1z"/>
	<path fill="#CECECE" d="M55.2,28.4c-14.1,0-14.1,14.1-14.1,14.1s-1,14,14.1,14c0,0,12.5,0.7,12.5-9.7h-6.4c0,0,0.2,3.9-5.9,3.9
		c0,0-6.4,0.4-6.4-6.4h19C67.9,44.2,70,28.4,55.2,28.4z M48.9,39.4c0,0,0.8-5.6,6.4-5.6c5.7,0,5.6,5.6,5.6,5.6H48.9z"/>
	<rect x="47.3" y="21.2" fill="#CECECE" width="15.1" height="4.5"/>
</g>
</svg>
