<?xml version="1.0" encoding="utf-8"?>
<!-- Generator: Adobe Illustrator 17.1.0, SVG Export Plug-In . SVG Version: 6.00 Build 0)  -->
<!DOCTYPE svg PUBLIC "-//W3C//DTD SVG 1.1//EN" "http://www.w3.org/Graphics/SVG/1.1/DTD/svg11.dtd">
<svg version="1.1" id="Layer_1" xmlns="http://www.w3.org/2000/svg" xmlns:xlink="http://www.w3.org/1999/xlink" x="0px" y="0px"
	 viewBox="0 0 75 75" enable-background="new 0 0 75 75" xml:space="preserve">
<g>
	<path fill="#CECECE" d="M40.1,34.6L40.1,34.6C40.1,34.5,40,34.6,40.1,34.6L40.1,34.6z"/>
	<path fill="#CECECE" d="M59.3,12.2H17.1c-2,0-3.7,1.6-3.7,3.6v42.6c0,2,1.6,3.6,3.7,3.6h42.1c2,0,3.7-1.6,3.7-3.6V15.7
		C62.9,13.8,61.3,12.2,59.3,12.2z M28.5,53.8H21V31.3h7.5V53.8z M24.7,28.3L24.7,28.3c-2.6,0-4.2-1.7-4.2-3.9c0-2.2,1.7-3.9,4.2-3.9
		c2.6,0,4.1,1.7,4.2,3.9C29,26.5,27.3,28.3,24.7,28.3z M55.4,53.8h-7.5v-12c0-3-1.1-5.1-3.8-5.1c-2.1,0-3.3,1.4-3.8,2.7
		c-0.2,0.5-0.2,1.1-0.2,1.8v12.5h-7.5c0,0,0.1-20.4,0-22.5h7.5v3.2c1-1.5,2.8-3.7,6.7-3.7c4.9,0,8.6,3.2,8.6,10.1L55.4,53.8
		L55.4,53.8z"/>
</g>
</svg>
