<?xml version="1.0" encoding="utf-8"?>
<!-- Generator: Adobe Illustrator 16.0.3, SVG Export Plug-In . SVG Version: 6.00 Build 0)  -->
<!DOCTYPE svg PUBLIC "-//W3C//DTD SVG 1.1//EN" "http://www.w3.org/Graphics/SVG/1.1/DTD/svg11.dtd">
<svg version="1.1" id="Layer_1" xmlns="http://www.w3.org/2000/svg" xmlns:xlink="http://www.w3.org/1999/xlink" x="0px" y="0px"
	 width="75px" height="75px" viewBox="474.5 346.5 75 75" enable-background="new 474.5 346.5 75 75" xml:space="preserve">
<g>
	<path display="none" fill="#CECECE" d="M514.159,380.804L514.159,380.804C514.159,380.705,514.055,380.804,514.159,380.804
		L514.159,380.804z"/>
	<g>
		<path fill="#CECECE" d="M534.174,358.479h-43.991c-2.085,0-3.857,1.595-3.857,3.588v42.456c0,1.994,1.668,3.589,3.857,3.589
			h43.886c2.085,0,3.856-1.595,3.856-3.589v-42.556C537.926,360.074,536.258,358.479,534.174,358.479z M505.485,401.949
			c-6.748,0-10.002-3.074-10.002-6.374c0-1.605,0.836-3.877,3.582-5.438c2.883-1.694,6.793-1.916,8.888-2.054
			c-0.653-0.802-1.396-1.648-1.396-3.03c0-0.756,0.233-1.202,0.463-1.737c-0.512,0.045-1.022,0.089-1.487,0.089
			c-4.93,0-7.722-3.524-7.722-7.001c0-2.048,0.976-4.322,2.976-5.973c2.654-2.094,6.279-2.664,8.794-2.664h9.167l-3.026,1.818
			h-2.882c1.068,0.846,3.3,2.629,3.3,6.019c0,3.296-1.952,4.861-3.905,6.331c-0.606,0.578-1.305,1.203-1.305,2.185
			c0,0.978,0.699,1.514,1.21,1.917l1.677,1.245c2.046,1.649,3.907,3.165,3.906,6.243
			C517.723,397.717,513.486,401.949,505.485,401.949z M530.242,384.313h-4.677v4.484h-2.304v-4.484h-4.653v-2.226h4.653v-4.457
			h2.304v4.457h4.677V384.313z"/>
		<path fill="#CECECE" d="M512.046,377.654c0-3.21-2.001-8.203-5.859-8.203c-1.213,0-2.513,0.58-3.26,1.472
			c-0.792,0.938-1.022,2.137-1.022,3.3c0,2.985,1.813,7.933,5.816,7.933c1.163,0,2.415-0.533,3.164-1.247
			C511.954,379.881,512.046,378.458,512.046,377.654z"/>
		<path fill="#CECECE" d="M509.533,389.38c-0.371-0.046-0.603-0.046-1.067-0.046c-0.42,0-2.934,0.087-4.886,0.716
			c-1.024,0.355-4.001,1.426-4.001,4.59c0,3.166,3.21,5.442,8.188,5.442c4.467,0,6.841-2.055,6.841-4.816
			C514.607,392.986,513.071,391.786,509.533,389.38z"/>
	</g>
</g>
</svg>
