<?xml version="1.0" encoding="utf-8"?>
<!-- Generator: Adobe Illustrator 16.0.3, SVG Export Plug-In . SVG Version: 6.00 Build 0)  -->
<!DOCTYPE svg PUBLIC "-//W3C//DTD SVG 1.1//EN" "http://www.w3.org/Graphics/SVG/1.1/DTD/svg11.dtd">
<svg version="1.1" id="Calque_1" xmlns="http://www.w3.org/2000/svg" xmlns:xlink="http://www.w3.org/1999/xlink" x="0px" y="0px"
	 width="150px" height="150px" viewBox="0 0 150 150" enable-background="new 0 0 150 150" xml:space="preserve">
<g>
	<path fill="#C90000" d="M56.509,143.041c5.812,1.564,11.914,2.412,18.212,2.412c13.105,0,25.376-3.621,35.882-9.902L56.509,85.083
		V143.041z"/>
	<path fill="#C90000" d="M4.568,75.301c0,29.226,17.97,54.324,43.437,64.853V10.447C22.539,20.977,4.568,46.075,4.568,75.301z"/>
	<path fill="#C90000" d="M121.76,23.302v44.184h22.668C142.484,50.038,134.127,34.5,121.76,23.302z"/>
	<path fill="#C90000" d="M74.721,5.148c-6.298,0-12.4,0.848-18.212,2.412V65.52l54.095-50.469
		C100.098,8.77,87.826,5.148,74.721,5.148z"/>
	<polygon fill="#C90000" points="113.256,126.396 113.256,75.99 102.697,75.99 102.697,67.486 113.256,67.486 113.256,24.208 
		58.49,75.301 	"/>
	<path fill="#C90000" d="M121.76,75.99v51.309c14.027-12.701,22.899-30.985,23.097-51.309H121.76z"/>
</g>
</svg>
