<?xml version="1.0" encoding="utf-8"?>
<!-- Generator: Adobe Illustrator 16.0.3, SVG Export Plug-In . SVG Version: 6.00 Build 0)  -->
<!DOCTYPE svg PUBLIC "-//W3C//DTD SVG 1.1//EN" "http://www.w3.org/Graphics/SVG/1.1/DTD/svg11.dtd">
<svg version="1.1" id="Calque_1" xmlns="http://www.w3.org/2000/svg" xmlns:xlink="http://www.w3.org/1999/xlink" x="0px" y="0px"
	 width="150px" height="150px" viewBox="0 0 150 150" enable-background="new 0 0 150 150" xml:space="preserve">
<path fill="#FFFFFF" d="M75.609,3.978c-39.879,0-72.324,32.444-72.324,72.323s32.444,72.323,72.324,72.323
	s72.324-32.444,72.324-72.323S115.488,3.978,75.609,3.978z M139.704,69.116h-20.845V28.489
	C130.23,38.785,137.916,53.072,139.704,69.116z M111.04,76.935v46.347l-50.355-46.98l50.355-46.979v39.794h-9.708v7.819H111.04z
	 M108.604,20.902l-49.74,46.405V14.014c5.344-1.438,10.955-2.217,16.746-2.217C87.659,11.797,98.943,15.126,108.604,20.902z
	 M11.104,76.301c0-26.873,16.523-49.95,39.939-59.632v119.264C27.628,126.251,11.104,103.174,11.104,76.301z M58.863,138.587V85.295
	l49.739,46.405c-9.66,5.775-20.943,9.104-32.994,9.104C69.818,140.805,64.207,140.025,58.863,138.587z M118.859,124.112V76.935
	h21.238C139.916,95.622,131.758,112.434,118.859,124.112z"/>
</svg>
