<?xml version="1.0" encoding="utf-8"?>
<!-- Generator: Adobe Illustrator 26.0.2, SVG Export Plug-In . SVG Version: 6.00 Build 0)  -->
<svg version="1.1" id="Layer_1" xmlns="http://www.w3.org/2000/svg" xmlns:xlink="http://www.w3.org/1999/xlink" x="0px" y="0px"
	 viewBox="0 0 23.5 23.5" style="enable-background:new 0 0 23.5 23.5;" xml:space="preserve">
<style type="text/css">
	.st0{fill:#0095E0;}
</style>
<path class="st0" d="M14.5,12c-1.6,0-2.9,1.3-2.9,2.9s1.3,2.9,2.9,2.9s2.9-1.3,2.9-2.9S16.1,12,14.5,12z M14.8,15.1V17h-0.5v-1.9
	h-1.8v-0.5h1.8v-1.9h0.5v1.9h1.8v0.5C16.6,15.1,14.8,15.1,14.8,15.1z"/>
<g>
	<path class="st0" d="M6.8,5h1.1v3.6h0C8,8.3,8.3,8,8.6,7.8c0.3-0.2,0.7-0.3,1.1-0.3c0.8,0,2,0.5,2,2.5v3.5h-1.1v-3.3
		c0-0.9-0.3-1.7-1.3-1.7c-0.7,0-1.2,0.5-1.4,1.1C7.8,9.6,7.8,9.8,7.8,10v3.5H6.8V5z"/>
</g>
</svg>
